<mxfile host="www.draw.io" modified="2019-11-11T03:35:25.399Z" agent="Mozilla/5.0 (Windows NT 10.0; Win64; x64) AppleWebKit/537.36 (KHTML, like Gecko) Chrome/78.0.3904.87 Safari/537.36" etag="vPkIcPEvn3HvRBO7LXwn" version="12.2.3" type="github" pages="1">
  <diagram id="wBtpnvuAtVZtpom5TscJ" name="Page-1">
    <mxGraphModel dx="2249" dy="762" grid="1" gridSize="10" guides="1" tooltips="1" connect="1" arrows="1" fold="1" page="1" pageScale="1" pageWidth="827" pageHeight="1169" math="0" shadow="0">
      <root>
        <mxCell id="0"/>
        <mxCell id="1" parent="0"/>
        <mxCell id="mlgvoR9TbAIo5Vg3jV27-1" value="t_bas_site" style="swimlane;fontStyle=0;childLayout=stackLayout;horizontal=1;startSize=26;fillColor=#e0e0e0;horizontalStack=0;resizeParent=1;resizeParentMax=0;resizeLast=0;collapsible=1;marginBottom=0;swimlaneFillColor=#ffffff;align=center;fontSize=14;" vertex="1" parent="1">
          <mxGeometry x="190" y="140" width="230" height="226" as="geometry"/>
        </mxCell>
        <mxCell id="mlgvoR9TbAIo5Vg3jV27-2" value="site_id" style="shape=partialRectangle;top=0;left=0;right=0;bottom=1;align=left;verticalAlign=middle;fillColor=none;spacingLeft=34;spacingRight=4;overflow=hidden;rotatable=0;points=[[0,0.5],[1,0.5]];portConstraint=eastwest;dropTarget=0;fontStyle=5;fontSize=12;" vertex="1" parent="mlgvoR9TbAIo5Vg3jV27-1">
          <mxGeometry y="26" width="230" height="30" as="geometry"/>
        </mxCell>
        <mxCell id="mlgvoR9TbAIo5Vg3jV27-3" value="PK" style="shape=partialRectangle;top=0;left=0;bottom=0;fillColor=none;align=left;verticalAlign=middle;spacingLeft=4;spacingRight=4;overflow=hidden;rotatable=0;points=[];portConstraint=eastwest;part=1;fontSize=12;" vertex="1" connectable="0" parent="mlgvoR9TbAIo5Vg3jV27-2">
          <mxGeometry width="30" height="30" as="geometry"/>
        </mxCell>
        <mxCell id="mlgvoR9TbAIo5Vg3jV27-29" value="" style="shape=partialRectangle;top=0;left=0;right=0;bottom=1;align=left;verticalAlign=middle;fillColor=none;spacingLeft=34;spacingRight=4;overflow=hidden;rotatable=0;points=[[0,0.5],[1,0.5]];portConstraint=eastwest;dropTarget=0;fontStyle=5;fontSize=12;" vertex="1" parent="mlgvoR9TbAIo5Vg3jV27-1">
          <mxGeometry y="56" width="230" height="30" as="geometry"/>
        </mxCell>
        <mxCell id="mlgvoR9TbAIo5Vg3jV27-30" value="LK" style="shape=partialRectangle;top=0;left=0;bottom=0;fillColor=none;align=left;verticalAlign=middle;spacingLeft=4;spacingRight=4;overflow=hidden;rotatable=0;points=[];portConstraint=eastwest;part=1;fontSize=12;" vertex="1" connectable="0" parent="mlgvoR9TbAIo5Vg3jV27-29">
          <mxGeometry width="30" height="30" as="geometry"/>
        </mxCell>
        <mxCell id="mlgvoR9TbAIo5Vg3jV27-4" value="site_name" style="shape=partialRectangle;top=0;left=0;right=0;bottom=0;align=left;verticalAlign=top;fillColor=none;spacingLeft=34;spacingRight=4;overflow=hidden;rotatable=0;points=[[0,0.5],[1,0.5]];portConstraint=eastwest;dropTarget=0;fontSize=12;" vertex="1" parent="mlgvoR9TbAIo5Vg3jV27-1">
          <mxGeometry y="86" width="230" height="26" as="geometry"/>
        </mxCell>
        <mxCell id="mlgvoR9TbAIo5Vg3jV27-5" value="" style="shape=partialRectangle;top=0;left=0;bottom=0;fillColor=none;align=left;verticalAlign=top;spacingLeft=4;spacingRight=4;overflow=hidden;rotatable=0;points=[];portConstraint=eastwest;part=1;fontSize=12;" vertex="1" connectable="0" parent="mlgvoR9TbAIo5Vg3jV27-4">
          <mxGeometry width="30" height="26" as="geometry"/>
        </mxCell>
        <mxCell id="mlgvoR9TbAIo5Vg3jV27-6" value="monitor_type" style="shape=partialRectangle;top=0;left=0;right=0;bottom=0;align=left;verticalAlign=top;fillColor=none;spacingLeft=34;spacingRight=4;overflow=hidden;rotatable=0;points=[[0,0.5],[1,0.5]];portConstraint=eastwest;dropTarget=0;fontSize=12;" vertex="1" parent="mlgvoR9TbAIo5Vg3jV27-1">
          <mxGeometry y="112" width="230" height="26" as="geometry"/>
        </mxCell>
        <mxCell id="mlgvoR9TbAIo5Vg3jV27-7" value="" style="shape=partialRectangle;top=0;left=0;bottom=0;fillColor=none;align=left;verticalAlign=top;spacingLeft=4;spacingRight=4;overflow=hidden;rotatable=0;points=[];portConstraint=eastwest;part=1;fontSize=12;" vertex="1" connectable="0" parent="mlgvoR9TbAIo5Vg3jV27-6">
          <mxGeometry width="30" height="26" as="geometry"/>
        </mxCell>
        <mxCell id="mlgvoR9TbAIo5Vg3jV27-8" value="address" style="shape=partialRectangle;top=0;left=0;right=0;bottom=0;align=left;verticalAlign=top;fillColor=none;spacingLeft=34;spacingRight=4;overflow=hidden;rotatable=0;points=[[0,0.5],[1,0.5]];portConstraint=eastwest;dropTarget=0;fontSize=12;" vertex="1" parent="mlgvoR9TbAIo5Vg3jV27-1">
          <mxGeometry y="138" width="230" height="26" as="geometry"/>
        </mxCell>
        <mxCell id="mlgvoR9TbAIo5Vg3jV27-9" value="" style="shape=partialRectangle;top=0;left=0;bottom=0;fillColor=none;align=left;verticalAlign=top;spacingLeft=4;spacingRight=4;overflow=hidden;rotatable=0;points=[];portConstraint=eastwest;part=1;fontSize=12;" vertex="1" connectable="0" parent="mlgvoR9TbAIo5Vg3jV27-8">
          <mxGeometry width="30" height="26" as="geometry"/>
        </mxCell>
        <mxCell id="mlgvoR9TbAIo5Vg3jV27-31" value="position_id" style="shape=partialRectangle;top=0;left=0;right=0;bottom=0;align=left;verticalAlign=top;fillColor=none;spacingLeft=34;spacingRight=4;overflow=hidden;rotatable=0;points=[[0,0.5],[1,0.5]];portConstraint=eastwest;dropTarget=0;fontSize=12;" vertex="1" parent="mlgvoR9TbAIo5Vg3jV27-1">
          <mxGeometry y="164" width="230" height="26" as="geometry"/>
        </mxCell>
        <mxCell id="mlgvoR9TbAIo5Vg3jV27-32" value="" style="shape=partialRectangle;top=0;left=0;bottom=0;fillColor=none;align=left;verticalAlign=top;spacingLeft=4;spacingRight=4;overflow=hidden;rotatable=0;points=[];portConstraint=eastwest;part=1;fontSize=12;" vertex="1" connectable="0" parent="mlgvoR9TbAIo5Vg3jV27-31">
          <mxGeometry width="30" height="26" as="geometry"/>
        </mxCell>
        <mxCell id="mlgvoR9TbAIo5Vg3jV27-34" value="administrative_division" style="shape=partialRectangle;top=0;left=0;right=0;bottom=0;align=left;verticalAlign=top;fillColor=none;spacingLeft=34;spacingRight=4;overflow=hidden;rotatable=0;points=[[0,0.5],[1,0.5]];portConstraint=eastwest;dropTarget=0;fontSize=12;" vertex="1" parent="mlgvoR9TbAIo5Vg3jV27-1">
          <mxGeometry y="190" width="230" height="26" as="geometry"/>
        </mxCell>
        <mxCell id="mlgvoR9TbAIo5Vg3jV27-35" value="" style="shape=partialRectangle;top=0;left=0;bottom=0;fillColor=none;align=left;verticalAlign=top;spacingLeft=4;spacingRight=4;overflow=hidden;rotatable=0;points=[];portConstraint=eastwest;part=1;fontSize=12;" vertex="1" connectable="0" parent="mlgvoR9TbAIo5Vg3jV27-34">
          <mxGeometry width="30" height="26" as="geometry"/>
        </mxCell>
        <mxCell id="mlgvoR9TbAIo5Vg3jV27-10" value="" style="shape=partialRectangle;top=0;left=0;right=0;bottom=0;align=left;verticalAlign=top;fillColor=none;spacingLeft=34;spacingRight=4;overflow=hidden;rotatable=0;points=[[0,0.5],[1,0.5]];portConstraint=eastwest;dropTarget=0;fontSize=12;" vertex="1" parent="mlgvoR9TbAIo5Vg3jV27-1">
          <mxGeometry y="216" width="230" height="10" as="geometry"/>
        </mxCell>
        <mxCell id="mlgvoR9TbAIo5Vg3jV27-11" value="" style="shape=partialRectangle;top=0;left=0;bottom=0;fillColor=none;align=left;verticalAlign=top;spacingLeft=4;spacingRight=4;overflow=hidden;rotatable=0;points=[];portConstraint=eastwest;part=1;fontSize=12;" vertex="1" connectable="0" parent="mlgvoR9TbAIo5Vg3jV27-10">
          <mxGeometry width="30" height="10" as="geometry"/>
        </mxCell>
        <mxCell id="mlgvoR9TbAIo5Vg3jV27-36" value="t_bas_site_instrument" style="swimlane;fontStyle=0;childLayout=stackLayout;horizontal=1;startSize=26;fillColor=#dae8fc;horizontalStack=0;resizeParent=1;resizeParentMax=0;resizeLast=0;collapsible=1;marginBottom=0;swimlaneFillColor=#ffffff;align=center;fontSize=14;strokeColor=#6c8ebf;" vertex="1" parent="1">
          <mxGeometry x="490" y="166" width="240" height="256" as="geometry"/>
        </mxCell>
        <mxCell id="mlgvoR9TbAIo5Vg3jV27-37" value="bind_id" style="shape=partialRectangle;top=0;left=0;right=0;bottom=1;align=left;verticalAlign=middle;fillColor=none;spacingLeft=34;spacingRight=4;overflow=hidden;rotatable=0;points=[[0,0.5],[1,0.5]];portConstraint=eastwest;dropTarget=0;fontStyle=5;fontSize=12;" vertex="1" parent="mlgvoR9TbAIo5Vg3jV27-36">
          <mxGeometry y="26" width="240" height="30" as="geometry"/>
        </mxCell>
        <mxCell id="mlgvoR9TbAIo5Vg3jV27-38" value="PK" style="shape=partialRectangle;top=0;left=0;bottom=0;fillColor=none;align=left;verticalAlign=middle;spacingLeft=4;spacingRight=4;overflow=hidden;rotatable=0;points=[];portConstraint=eastwest;part=1;fontSize=12;" vertex="1" connectable="0" parent="mlgvoR9TbAIo5Vg3jV27-37">
          <mxGeometry width="30" height="30" as="geometry"/>
        </mxCell>
        <mxCell id="mlgvoR9TbAIo5Vg3jV27-47" value="instrument_id" style="shape=partialRectangle;top=0;left=0;right=0;bottom=1;align=left;verticalAlign=middle;fillColor=none;spacingLeft=34;spacingRight=4;overflow=hidden;rotatable=0;points=[[0,0.5],[1,0.5]];portConstraint=eastwest;dropTarget=0;fontStyle=5;fontSize=12;" vertex="1" parent="mlgvoR9TbAIo5Vg3jV27-36">
          <mxGeometry y="56" width="240" height="30" as="geometry"/>
        </mxCell>
        <mxCell id="mlgvoR9TbAIo5Vg3jV27-48" value="LK" style="shape=partialRectangle;top=0;left=0;bottom=0;fillColor=none;align=left;verticalAlign=middle;spacingLeft=4;spacingRight=4;overflow=hidden;rotatable=0;points=[];portConstraint=eastwest;part=1;fontSize=12;" vertex="1" connectable="0" parent="mlgvoR9TbAIo5Vg3jV27-47">
          <mxGeometry width="30" height="30" as="geometry"/>
        </mxCell>
        <mxCell id="mlgvoR9TbAIo5Vg3jV27-49" value="site_id" style="shape=partialRectangle;top=0;left=0;right=0;bottom=1;align=left;verticalAlign=middle;fillColor=none;spacingLeft=34;spacingRight=4;overflow=hidden;rotatable=0;points=[[0,0.5],[1,0.5]];portConstraint=eastwest;dropTarget=0;fontStyle=5;fontSize=12;" vertex="1" parent="mlgvoR9TbAIo5Vg3jV27-36">
          <mxGeometry y="86" width="240" height="30" as="geometry"/>
        </mxCell>
        <mxCell id="mlgvoR9TbAIo5Vg3jV27-50" value="LK" style="shape=partialRectangle;top=0;left=0;bottom=0;fillColor=none;align=left;verticalAlign=middle;spacingLeft=4;spacingRight=4;overflow=hidden;rotatable=0;points=[];portConstraint=eastwest;part=1;fontSize=12;" vertex="1" connectable="0" parent="mlgvoR9TbAIo5Vg3jV27-49">
          <mxGeometry width="30" height="30" as="geometry"/>
        </mxCell>
        <mxCell id="mlgvoR9TbAIo5Vg3jV27-39" value="history_stamp" style="shape=partialRectangle;top=0;left=0;right=0;bottom=0;align=left;verticalAlign=top;fillColor=none;spacingLeft=34;spacingRight=4;overflow=hidden;rotatable=0;points=[[0,0.5],[1,0.5]];portConstraint=eastwest;dropTarget=0;fontSize=12;" vertex="1" parent="mlgvoR9TbAIo5Vg3jV27-36">
          <mxGeometry y="116" width="240" height="26" as="geometry"/>
        </mxCell>
        <mxCell id="mlgvoR9TbAIo5Vg3jV27-40" value="" style="shape=partialRectangle;top=0;left=0;bottom=0;fillColor=none;align=left;verticalAlign=top;spacingLeft=4;spacingRight=4;overflow=hidden;rotatable=0;points=[];portConstraint=eastwest;part=1;fontSize=12;" vertex="1" connectable="0" parent="mlgvoR9TbAIo5Vg3jV27-39">
          <mxGeometry width="30" height="26" as="geometry"/>
        </mxCell>
        <mxCell id="mlgvoR9TbAIo5Vg3jV27-41" value="manual_flag" style="shape=partialRectangle;top=0;left=0;right=0;bottom=0;align=left;verticalAlign=top;fillColor=none;spacingLeft=34;spacingRight=4;overflow=hidden;rotatable=0;points=[[0,0.5],[1,0.5]];portConstraint=eastwest;dropTarget=0;fontSize=12;" vertex="1" parent="mlgvoR9TbAIo5Vg3jV27-36">
          <mxGeometry y="142" width="240" height="26" as="geometry"/>
        </mxCell>
        <mxCell id="mlgvoR9TbAIo5Vg3jV27-42" value="" style="shape=partialRectangle;top=0;left=0;bottom=0;fillColor=none;align=left;verticalAlign=top;spacingLeft=4;spacingRight=4;overflow=hidden;rotatable=0;points=[];portConstraint=eastwest;part=1;fontSize=12;" vertex="1" connectable="0" parent="mlgvoR9TbAIo5Vg3jV27-41">
          <mxGeometry width="30" height="26" as="geometry"/>
        </mxCell>
        <mxCell id="mlgvoR9TbAIo5Vg3jV27-43" value="instru_type" style="shape=partialRectangle;top=0;left=0;right=0;bottom=0;align=left;verticalAlign=top;fillColor=none;spacingLeft=34;spacingRight=4;overflow=hidden;rotatable=0;points=[[0,0.5],[1,0.5]];portConstraint=eastwest;dropTarget=0;fontSize=12;" vertex="1" parent="mlgvoR9TbAIo5Vg3jV27-36">
          <mxGeometry y="168" width="240" height="26" as="geometry"/>
        </mxCell>
        <mxCell id="mlgvoR9TbAIo5Vg3jV27-44" value="" style="shape=partialRectangle;top=0;left=0;bottom=0;fillColor=none;align=left;verticalAlign=top;spacingLeft=4;spacingRight=4;overflow=hidden;rotatable=0;points=[];portConstraint=eastwest;part=1;fontSize=12;" vertex="1" connectable="0" parent="mlgvoR9TbAIo5Vg3jV27-43">
          <mxGeometry width="30" height="26" as="geometry"/>
        </mxCell>
        <mxCell id="mlgvoR9TbAIo5Vg3jV27-53" value="report_time_list" style="shape=partialRectangle;top=0;left=0;right=0;bottom=0;align=left;verticalAlign=top;fillColor=none;spacingLeft=34;spacingRight=4;overflow=hidden;rotatable=0;points=[[0,0.5],[1,0.5]];portConstraint=eastwest;dropTarget=0;fontSize=12;" vertex="1" parent="mlgvoR9TbAIo5Vg3jV27-36">
          <mxGeometry y="194" width="240" height="26" as="geometry"/>
        </mxCell>
        <mxCell id="mlgvoR9TbAIo5Vg3jV27-54" value="" style="shape=partialRectangle;top=0;left=0;bottom=0;fillColor=none;align=left;verticalAlign=top;spacingLeft=4;spacingRight=4;overflow=hidden;rotatable=0;points=[];portConstraint=eastwest;part=1;fontSize=12;" vertex="1" connectable="0" parent="mlgvoR9TbAIo5Vg3jV27-53">
          <mxGeometry width="30" height="26" as="geometry"/>
        </mxCell>
        <mxCell id="mlgvoR9TbAIo5Vg3jV27-51" value="main_type" style="shape=partialRectangle;top=0;left=0;right=0;bottom=0;align=left;verticalAlign=top;fillColor=none;spacingLeft=34;spacingRight=4;overflow=hidden;rotatable=0;points=[[0,0.5],[1,0.5]];portConstraint=eastwest;dropTarget=0;fontSize=12;" vertex="1" parent="mlgvoR9TbAIo5Vg3jV27-36">
          <mxGeometry y="220" width="240" height="26" as="geometry"/>
        </mxCell>
        <mxCell id="mlgvoR9TbAIo5Vg3jV27-52" value="" style="shape=partialRectangle;top=0;left=0;bottom=0;fillColor=none;align=left;verticalAlign=top;spacingLeft=4;spacingRight=4;overflow=hidden;rotatable=0;points=[];portConstraint=eastwest;part=1;fontSize=12;" vertex="1" connectable="0" parent="mlgvoR9TbAIo5Vg3jV27-51">
          <mxGeometry width="30" height="26" as="geometry"/>
        </mxCell>
        <mxCell id="mlgvoR9TbAIo5Vg3jV27-45" value="" style="shape=partialRectangle;top=0;left=0;right=0;bottom=0;align=left;verticalAlign=top;fillColor=none;spacingLeft=34;spacingRight=4;overflow=hidden;rotatable=0;points=[[0,0.5],[1,0.5]];portConstraint=eastwest;dropTarget=0;fontSize=12;" vertex="1" parent="mlgvoR9TbAIo5Vg3jV27-36">
          <mxGeometry y="246" width="240" height="10" as="geometry"/>
        </mxCell>
        <mxCell id="mlgvoR9TbAIo5Vg3jV27-46" value="" style="shape=partialRectangle;top=0;left=0;bottom=0;fillColor=none;align=left;verticalAlign=top;spacingLeft=4;spacingRight=4;overflow=hidden;rotatable=0;points=[];portConstraint=eastwest;part=1;fontSize=12;" vertex="1" connectable="0" parent="mlgvoR9TbAIo5Vg3jV27-45">
          <mxGeometry width="30" height="10" as="geometry"/>
        </mxCell>
        <mxCell id="mlgvoR9TbAIo5Vg3jV27-55" value="t_bas_site_range" style="swimlane;fontStyle=0;childLayout=stackLayout;horizontal=1;startSize=26;fillColor=#e0e0e0;horizontalStack=0;resizeParent=1;resizeParentMax=0;resizeLast=0;collapsible=1;marginBottom=0;swimlaneFillColor=#ffffff;align=center;fontSize=14;" vertex="1" parent="1">
          <mxGeometry x="210" y="440" width="160" height="226" as="geometry"/>
        </mxCell>
        <mxCell id="mlgvoR9TbAIo5Vg3jV27-56" value="range_id" style="shape=partialRectangle;top=0;left=0;right=0;bottom=1;align=left;verticalAlign=middle;fillColor=none;spacingLeft=34;spacingRight=4;overflow=hidden;rotatable=0;points=[[0,0.5],[1,0.5]];portConstraint=eastwest;dropTarget=0;fontStyle=5;fontSize=12;" vertex="1" parent="mlgvoR9TbAIo5Vg3jV27-55">
          <mxGeometry y="26" width="160" height="30" as="geometry"/>
        </mxCell>
        <mxCell id="mlgvoR9TbAIo5Vg3jV27-57" value="PK" style="shape=partialRectangle;top=0;left=0;bottom=0;fillColor=none;align=left;verticalAlign=middle;spacingLeft=4;spacingRight=4;overflow=hidden;rotatable=0;points=[];portConstraint=eastwest;part=1;fontSize=12;" vertex="1" connectable="0" parent="mlgvoR9TbAIo5Vg3jV27-56">
          <mxGeometry width="30" height="30" as="geometry"/>
        </mxCell>
        <mxCell id="mlgvoR9TbAIo5Vg3jV27-66" value="site_id" style="shape=partialRectangle;top=0;left=0;right=0;bottom=1;align=left;verticalAlign=middle;fillColor=none;spacingLeft=34;spacingRight=4;overflow=hidden;rotatable=0;points=[[0,0.5],[1,0.5]];portConstraint=eastwest;dropTarget=0;fontStyle=5;fontSize=12;" vertex="1" parent="mlgvoR9TbAIo5Vg3jV27-55">
          <mxGeometry y="56" width="160" height="30" as="geometry"/>
        </mxCell>
        <mxCell id="mlgvoR9TbAIo5Vg3jV27-67" value="LK" style="shape=partialRectangle;top=0;left=0;bottom=0;fillColor=none;align=left;verticalAlign=middle;spacingLeft=4;spacingRight=4;overflow=hidden;rotatable=0;points=[];portConstraint=eastwest;part=1;fontSize=12;" vertex="1" connectable="0" parent="mlgvoR9TbAIo5Vg3jV27-66">
          <mxGeometry width="30" height="30" as="geometry"/>
        </mxCell>
        <mxCell id="mlgvoR9TbAIo5Vg3jV27-58" value="shape_type" style="shape=partialRectangle;top=0;left=0;right=0;bottom=0;align=left;verticalAlign=top;fillColor=none;spacingLeft=34;spacingRight=4;overflow=hidden;rotatable=0;points=[[0,0.5],[1,0.5]];portConstraint=eastwest;dropTarget=0;fontSize=12;" vertex="1" parent="mlgvoR9TbAIo5Vg3jV27-55">
          <mxGeometry y="86" width="160" height="26" as="geometry"/>
        </mxCell>
        <mxCell id="mlgvoR9TbAIo5Vg3jV27-59" value="" style="shape=partialRectangle;top=0;left=0;bottom=0;fillColor=none;align=left;verticalAlign=top;spacingLeft=4;spacingRight=4;overflow=hidden;rotatable=0;points=[];portConstraint=eastwest;part=1;fontSize=12;" vertex="1" connectable="0" parent="mlgvoR9TbAIo5Vg3jV27-58">
          <mxGeometry width="30" height="26" as="geometry"/>
        </mxCell>
        <mxCell id="mlgvoR9TbAIo5Vg3jV27-60" value="range_points" style="shape=partialRectangle;top=0;left=0;right=0;bottom=0;align=left;verticalAlign=top;fillColor=none;spacingLeft=34;spacingRight=4;overflow=hidden;rotatable=0;points=[[0,0.5],[1,0.5]];portConstraint=eastwest;dropTarget=0;fontSize=12;" vertex="1" parent="mlgvoR9TbAIo5Vg3jV27-55">
          <mxGeometry y="112" width="160" height="26" as="geometry"/>
        </mxCell>
        <mxCell id="mlgvoR9TbAIo5Vg3jV27-61" value="" style="shape=partialRectangle;top=0;left=0;bottom=0;fillColor=none;align=left;verticalAlign=top;spacingLeft=4;spacingRight=4;overflow=hidden;rotatable=0;points=[];portConstraint=eastwest;part=1;fontSize=12;" vertex="1" connectable="0" parent="mlgvoR9TbAIo5Vg3jV27-60">
          <mxGeometry width="30" height="26" as="geometry"/>
        </mxCell>
        <mxCell id="mlgvoR9TbAIo5Vg3jV27-62" value="centre_longitude" style="shape=partialRectangle;top=0;left=0;right=0;bottom=0;align=left;verticalAlign=top;fillColor=none;spacingLeft=34;spacingRight=4;overflow=hidden;rotatable=0;points=[[0,0.5],[1,0.5]];portConstraint=eastwest;dropTarget=0;fontSize=12;" vertex="1" parent="mlgvoR9TbAIo5Vg3jV27-55">
          <mxGeometry y="138" width="160" height="26" as="geometry"/>
        </mxCell>
        <mxCell id="mlgvoR9TbAIo5Vg3jV27-63" value="" style="shape=partialRectangle;top=0;left=0;bottom=0;fillColor=none;align=left;verticalAlign=top;spacingLeft=4;spacingRight=4;overflow=hidden;rotatable=0;points=[];portConstraint=eastwest;part=1;fontSize=12;" vertex="1" connectable="0" parent="mlgvoR9TbAIo5Vg3jV27-62">
          <mxGeometry width="30" height="26" as="geometry"/>
        </mxCell>
        <mxCell id="mlgvoR9TbAIo5Vg3jV27-64" value="" style="shape=partialRectangle;top=0;left=0;right=0;bottom=0;align=left;verticalAlign=top;fillColor=none;spacingLeft=34;spacingRight=4;overflow=hidden;rotatable=0;points=[[0,0.5],[1,0.5]];portConstraint=eastwest;dropTarget=0;fontSize=12;" vertex="1" parent="mlgvoR9TbAIo5Vg3jV27-55">
          <mxGeometry y="164" width="160" height="10" as="geometry"/>
        </mxCell>
        <mxCell id="mlgvoR9TbAIo5Vg3jV27-65" value="" style="shape=partialRectangle;top=0;left=0;bottom=0;fillColor=none;align=left;verticalAlign=top;spacingLeft=4;spacingRight=4;overflow=hidden;rotatable=0;points=[];portConstraint=eastwest;part=1;fontSize=12;" vertex="1" connectable="0" parent="mlgvoR9TbAIo5Vg3jV27-64">
          <mxGeometry width="30" height="10" as="geometry"/>
        </mxCell>
        <mxCell id="mlgvoR9TbAIo5Vg3jV27-68" value="centre_latitude" style="shape=partialRectangle;top=0;left=0;right=0;bottom=0;align=left;verticalAlign=top;fillColor=none;spacingLeft=34;spacingRight=4;overflow=hidden;rotatable=0;points=[[0,0.5],[1,0.5]];portConstraint=eastwest;dropTarget=0;fontSize=12;" vertex="1" parent="mlgvoR9TbAIo5Vg3jV27-55">
          <mxGeometry y="174" width="160" height="26" as="geometry"/>
        </mxCell>
        <mxCell id="mlgvoR9TbAIo5Vg3jV27-69" value="" style="shape=partialRectangle;top=0;left=0;bottom=0;fillColor=none;align=left;verticalAlign=top;spacingLeft=4;spacingRight=4;overflow=hidden;rotatable=0;points=[];portConstraint=eastwest;part=1;fontSize=12;" vertex="1" connectable="0" parent="mlgvoR9TbAIo5Vg3jV27-68">
          <mxGeometry width="30" height="26" as="geometry"/>
        </mxCell>
        <mxCell id="mlgvoR9TbAIo5Vg3jV27-70" value="centre_altitude" style="shape=partialRectangle;top=0;left=0;right=0;bottom=0;align=left;verticalAlign=top;fillColor=none;spacingLeft=34;spacingRight=4;overflow=hidden;rotatable=0;points=[[0,0.5],[1,0.5]];portConstraint=eastwest;dropTarget=0;fontSize=12;" vertex="1" parent="mlgvoR9TbAIo5Vg3jV27-55">
          <mxGeometry y="200" width="160" height="26" as="geometry"/>
        </mxCell>
        <mxCell id="mlgvoR9TbAIo5Vg3jV27-71" value="" style="shape=partialRectangle;top=0;left=0;bottom=0;fillColor=none;align=left;verticalAlign=top;spacingLeft=4;spacingRight=4;overflow=hidden;rotatable=0;points=[];portConstraint=eastwest;part=1;fontSize=12;" vertex="1" connectable="0" parent="mlgvoR9TbAIo5Vg3jV27-70">
          <mxGeometry width="30" height="26" as="geometry"/>
        </mxCell>
        <mxCell id="mlgvoR9TbAIo5Vg3jV27-72" value="t_bas_site_instrument_bind" style="swimlane;fontStyle=0;childLayout=stackLayout;horizontal=1;startSize=26;fillColor=#dae8fc;horizontalStack=0;resizeParent=1;resizeParentMax=0;resizeLast=0;collapsible=1;marginBottom=0;swimlaneFillColor=#ffffff;align=center;fontSize=14;strokeColor=#6c8ebf;" vertex="1" parent="1">
          <mxGeometry x="810" y="180" width="280" height="170" as="geometry"/>
        </mxCell>
        <mxCell id="mlgvoR9TbAIo5Vg3jV27-73" value="id" style="shape=partialRectangle;top=0;left=0;right=0;bottom=1;align=left;verticalAlign=middle;fillColor=none;spacingLeft=34;spacingRight=4;overflow=hidden;rotatable=0;points=[[0,0.5],[1,0.5]];portConstraint=eastwest;dropTarget=0;fontStyle=5;fontSize=12;" vertex="1" parent="mlgvoR9TbAIo5Vg3jV27-72">
          <mxGeometry y="26" width="280" height="30" as="geometry"/>
        </mxCell>
        <mxCell id="mlgvoR9TbAIo5Vg3jV27-74" value="PK" style="shape=partialRectangle;top=0;left=0;bottom=0;fillColor=none;align=left;verticalAlign=middle;spacingLeft=4;spacingRight=4;overflow=hidden;rotatable=0;points=[];portConstraint=eastwest;part=1;fontSize=12;" vertex="1" connectable="0" parent="mlgvoR9TbAIo5Vg3jV27-73">
          <mxGeometry width="30" height="30" as="geometry"/>
        </mxCell>
        <mxCell id="mlgvoR9TbAIo5Vg3jV27-83" value="bind_id" style="shape=partialRectangle;top=0;left=0;right=0;bottom=1;align=left;verticalAlign=middle;fillColor=none;spacingLeft=34;spacingRight=4;overflow=hidden;rotatable=0;points=[[0,0.5],[1,0.5]];portConstraint=eastwest;dropTarget=0;fontStyle=5;fontSize=12;" vertex="1" parent="mlgvoR9TbAIo5Vg3jV27-72">
          <mxGeometry y="56" width="280" height="30" as="geometry"/>
        </mxCell>
        <mxCell id="mlgvoR9TbAIo5Vg3jV27-84" value="LK" style="shape=partialRectangle;top=0;left=0;bottom=0;fillColor=none;align=left;verticalAlign=middle;spacingLeft=4;spacingRight=4;overflow=hidden;rotatable=0;points=[];portConstraint=eastwest;part=1;fontSize=12;" vertex="1" connectable="0" parent="mlgvoR9TbAIo5Vg3jV27-83">
          <mxGeometry width="30" height="30" as="geometry"/>
        </mxCell>
        <mxCell id="mlgvoR9TbAIo5Vg3jV27-75" value="start_time" style="shape=partialRectangle;top=0;left=0;right=0;bottom=0;align=left;verticalAlign=top;fillColor=none;spacingLeft=34;spacingRight=4;overflow=hidden;rotatable=0;points=[[0,0.5],[1,0.5]];portConstraint=eastwest;dropTarget=0;fontSize=12;" vertex="1" parent="mlgvoR9TbAIo5Vg3jV27-72">
          <mxGeometry y="86" width="280" height="26" as="geometry"/>
        </mxCell>
        <mxCell id="mlgvoR9TbAIo5Vg3jV27-76" value="" style="shape=partialRectangle;top=0;left=0;bottom=0;fillColor=none;align=left;verticalAlign=top;spacingLeft=4;spacingRight=4;overflow=hidden;rotatable=0;points=[];portConstraint=eastwest;part=1;fontSize=12;" vertex="1" connectable="0" parent="mlgvoR9TbAIo5Vg3jV27-75">
          <mxGeometry width="30" height="26" as="geometry"/>
        </mxCell>
        <mxCell id="mlgvoR9TbAIo5Vg3jV27-77" value="end_time" style="shape=partialRectangle;top=0;left=0;right=0;bottom=0;align=left;verticalAlign=top;fillColor=none;spacingLeft=34;spacingRight=4;overflow=hidden;rotatable=0;points=[[0,0.5],[1,0.5]];portConstraint=eastwest;dropTarget=0;fontSize=12;" vertex="1" parent="mlgvoR9TbAIo5Vg3jV27-72">
          <mxGeometry y="112" width="280" height="26" as="geometry"/>
        </mxCell>
        <mxCell id="mlgvoR9TbAIo5Vg3jV27-78" value="" style="shape=partialRectangle;top=0;left=0;bottom=0;fillColor=none;align=left;verticalAlign=top;spacingLeft=4;spacingRight=4;overflow=hidden;rotatable=0;points=[];portConstraint=eastwest;part=1;fontSize=12;" vertex="1" connectable="0" parent="mlgvoR9TbAIo5Vg3jV27-77">
          <mxGeometry width="30" height="26" as="geometry"/>
        </mxCell>
        <mxCell id="mlgvoR9TbAIo5Vg3jV27-79" value="time_list" style="shape=partialRectangle;top=0;left=0;right=0;bottom=0;align=left;verticalAlign=top;fillColor=none;spacingLeft=34;spacingRight=4;overflow=hidden;rotatable=0;points=[[0,0.5],[1,0.5]];portConstraint=eastwest;dropTarget=0;fontSize=12;" vertex="1" parent="mlgvoR9TbAIo5Vg3jV27-72">
          <mxGeometry y="138" width="280" height="22" as="geometry"/>
        </mxCell>
        <mxCell id="mlgvoR9TbAIo5Vg3jV27-80" value="" style="shape=partialRectangle;top=0;left=0;bottom=0;fillColor=none;align=left;verticalAlign=top;spacingLeft=4;spacingRight=4;overflow=hidden;rotatable=0;points=[];portConstraint=eastwest;part=1;fontSize=12;" vertex="1" connectable="0" parent="mlgvoR9TbAIo5Vg3jV27-79">
          <mxGeometry width="30" height="22" as="geometry"/>
        </mxCell>
        <mxCell id="mlgvoR9TbAIo5Vg3jV27-81" value="" style="shape=partialRectangle;top=0;left=0;right=0;bottom=0;align=left;verticalAlign=top;fillColor=none;spacingLeft=34;spacingRight=4;overflow=hidden;rotatable=0;points=[[0,0.5],[1,0.5]];portConstraint=eastwest;dropTarget=0;fontSize=12;" vertex="1" parent="mlgvoR9TbAIo5Vg3jV27-72">
          <mxGeometry y="160" width="280" height="10" as="geometry"/>
        </mxCell>
        <mxCell id="mlgvoR9TbAIo5Vg3jV27-82" value="" style="shape=partialRectangle;top=0;left=0;bottom=0;fillColor=none;align=left;verticalAlign=top;spacingLeft=4;spacingRight=4;overflow=hidden;rotatable=0;points=[];portConstraint=eastwest;part=1;fontSize=12;" vertex="1" connectable="0" parent="mlgvoR9TbAIo5Vg3jV27-81">
          <mxGeometry width="30" height="10" as="geometry"/>
        </mxCell>
        <mxCell id="mlgvoR9TbAIo5Vg3jV27-85" value="t_bas_pollution_source" style="swimlane;fontStyle=0;childLayout=stackLayout;horizontal=1;startSize=26;fillColor=#e0e0e0;horizontalStack=0;resizeParent=1;resizeParentMax=0;resizeLast=0;collapsible=1;marginBottom=0;swimlaneFillColor=#ffffff;align=center;fontSize=14;" vertex="1" parent="1">
          <mxGeometry x="-300" y="130" width="200" height="346" as="geometry"/>
        </mxCell>
        <mxCell id="mlgvoR9TbAIo5Vg3jV27-86" value="source_id" style="shape=partialRectangle;top=0;left=0;right=0;bottom=1;align=left;verticalAlign=middle;fillColor=none;spacingLeft=34;spacingRight=4;overflow=hidden;rotatable=0;points=[[0,0.5],[1,0.5]];portConstraint=eastwest;dropTarget=0;fontStyle=5;fontSize=12;" vertex="1" parent="mlgvoR9TbAIo5Vg3jV27-85">
          <mxGeometry y="26" width="200" height="30" as="geometry"/>
        </mxCell>
        <mxCell id="mlgvoR9TbAIo5Vg3jV27-87" value="PK" style="shape=partialRectangle;top=0;left=0;bottom=0;fillColor=none;align=left;verticalAlign=middle;spacingLeft=4;spacingRight=4;overflow=hidden;rotatable=0;points=[];portConstraint=eastwest;part=1;fontSize=12;" vertex="1" connectable="0" parent="mlgvoR9TbAIo5Vg3jV27-86">
          <mxGeometry width="30" height="30" as="geometry"/>
        </mxCell>
        <mxCell id="mlgvoR9TbAIo5Vg3jV27-96" value="dept_id" style="shape=partialRectangle;top=0;left=0;right=0;bottom=1;align=left;verticalAlign=middle;fillColor=none;spacingLeft=34;spacingRight=4;overflow=hidden;rotatable=0;points=[[0,0.5],[1,0.5]];portConstraint=eastwest;dropTarget=0;fontStyle=5;fontSize=12;" vertex="1" parent="mlgvoR9TbAIo5Vg3jV27-85">
          <mxGeometry y="56" width="200" height="30" as="geometry"/>
        </mxCell>
        <mxCell id="mlgvoR9TbAIo5Vg3jV27-97" value="PK" style="shape=partialRectangle;top=0;left=0;bottom=0;fillColor=none;align=left;verticalAlign=middle;spacingLeft=4;spacingRight=4;overflow=hidden;rotatable=0;points=[];portConstraint=eastwest;part=1;fontSize=12;" vertex="1" connectable="0" parent="mlgvoR9TbAIo5Vg3jV27-96">
          <mxGeometry width="30" height="30" as="geometry"/>
        </mxCell>
        <mxCell id="mlgvoR9TbAIo5Vg3jV27-88" value="unified_code" style="shape=partialRectangle;top=0;left=0;right=0;bottom=0;align=left;verticalAlign=top;fillColor=none;spacingLeft=34;spacingRight=4;overflow=hidden;rotatable=0;points=[[0,0.5],[1,0.5]];portConstraint=eastwest;dropTarget=0;fontSize=12;" vertex="1" parent="mlgvoR9TbAIo5Vg3jV27-85">
          <mxGeometry y="86" width="200" height="26" as="geometry"/>
        </mxCell>
        <mxCell id="mlgvoR9TbAIo5Vg3jV27-89" value="" style="shape=partialRectangle;top=0;left=0;bottom=0;fillColor=none;align=left;verticalAlign=top;spacingLeft=4;spacingRight=4;overflow=hidden;rotatable=0;points=[];portConstraint=eastwest;part=1;fontSize=12;" vertex="1" connectable="0" parent="mlgvoR9TbAIo5Vg3jV27-88">
          <mxGeometry width="30" height="26" as="geometry"/>
        </mxCell>
        <mxCell id="mlgvoR9TbAIo5Vg3jV27-90" value="pollution_source_name" style="shape=partialRectangle;top=0;left=0;right=0;bottom=0;align=left;verticalAlign=top;fillColor=none;spacingLeft=34;spacingRight=4;overflow=hidden;rotatable=0;points=[[0,0.5],[1,0.5]];portConstraint=eastwest;dropTarget=0;fontSize=12;" vertex="1" parent="mlgvoR9TbAIo5Vg3jV27-85">
          <mxGeometry y="112" width="200" height="26" as="geometry"/>
        </mxCell>
        <mxCell id="mlgvoR9TbAIo5Vg3jV27-91" value="" style="shape=partialRectangle;top=0;left=0;bottom=0;fillColor=none;align=left;verticalAlign=top;spacingLeft=4;spacingRight=4;overflow=hidden;rotatable=0;points=[];portConstraint=eastwest;part=1;fontSize=12;" vertex="1" connectable="0" parent="mlgvoR9TbAIo5Vg3jV27-90">
          <mxGeometry width="30" height="26" as="geometry"/>
        </mxCell>
        <mxCell id="mlgvoR9TbAIo5Vg3jV27-92" value="pollution_source_code" style="shape=partialRectangle;top=0;left=0;right=0;bottom=0;align=left;verticalAlign=top;fillColor=none;spacingLeft=34;spacingRight=4;overflow=hidden;rotatable=0;points=[[0,0.5],[1,0.5]];portConstraint=eastwest;dropTarget=0;fontSize=12;" vertex="1" parent="mlgvoR9TbAIo5Vg3jV27-85">
          <mxGeometry y="138" width="200" height="26" as="geometry"/>
        </mxCell>
        <mxCell id="mlgvoR9TbAIo5Vg3jV27-93" value="" style="shape=partialRectangle;top=0;left=0;bottom=0;fillColor=none;align=left;verticalAlign=top;spacingLeft=4;spacingRight=4;overflow=hidden;rotatable=0;points=[];portConstraint=eastwest;part=1;fontSize=12;" vertex="1" connectable="0" parent="mlgvoR9TbAIo5Vg3jV27-92">
          <mxGeometry width="30" height="26" as="geometry"/>
        </mxCell>
        <mxCell id="mlgvoR9TbAIo5Vg3jV27-98" value="geographic_info" style="shape=partialRectangle;top=0;left=0;right=0;bottom=0;align=left;verticalAlign=top;fillColor=none;spacingLeft=34;spacingRight=4;overflow=hidden;rotatable=0;points=[[0,0.5],[1,0.5]];portConstraint=eastwest;dropTarget=0;fontSize=12;" vertex="1" parent="mlgvoR9TbAIo5Vg3jV27-85">
          <mxGeometry y="164" width="200" height="26" as="geometry"/>
        </mxCell>
        <mxCell id="mlgvoR9TbAIo5Vg3jV27-99" value="" style="shape=partialRectangle;top=0;left=0;bottom=0;fillColor=none;align=left;verticalAlign=top;spacingLeft=4;spacingRight=4;overflow=hidden;rotatable=0;points=[];portConstraint=eastwest;part=1;fontSize=12;" vertex="1" connectable="0" parent="mlgvoR9TbAIo5Vg3jV27-98">
          <mxGeometry width="30" height="26" as="geometry"/>
        </mxCell>
        <mxCell id="mlgvoR9TbAIo5Vg3jV27-100" value="supervision_dept_id" style="shape=partialRectangle;top=0;left=0;right=0;bottom=0;align=left;verticalAlign=top;fillColor=none;spacingLeft=34;spacingRight=4;overflow=hidden;rotatable=0;points=[[0,0.5],[1,0.5]];portConstraint=eastwest;dropTarget=0;fontSize=12;" vertex="1" parent="mlgvoR9TbAIo5Vg3jV27-85">
          <mxGeometry y="190" width="200" height="26" as="geometry"/>
        </mxCell>
        <mxCell id="mlgvoR9TbAIo5Vg3jV27-101" value="" style="shape=partialRectangle;top=0;left=0;bottom=0;fillColor=none;align=left;verticalAlign=top;spacingLeft=4;spacingRight=4;overflow=hidden;rotatable=0;points=[];portConstraint=eastwest;part=1;fontSize=12;" vertex="1" connectable="0" parent="mlgvoR9TbAIo5Vg3jV27-100">
          <mxGeometry width="30" height="26" as="geometry"/>
        </mxCell>
        <mxCell id="mlgvoR9TbAIo5Vg3jV27-102" value="envir_fun_zone" style="shape=partialRectangle;top=0;left=0;right=0;bottom=0;align=left;verticalAlign=top;fillColor=none;spacingLeft=34;spacingRight=4;overflow=hidden;rotatable=0;points=[[0,0.5],[1,0.5]];portConstraint=eastwest;dropTarget=0;fontSize=12;" vertex="1" parent="mlgvoR9TbAIo5Vg3jV27-85">
          <mxGeometry y="216" width="200" height="26" as="geometry"/>
        </mxCell>
        <mxCell id="mlgvoR9TbAIo5Vg3jV27-103" value="" style="shape=partialRectangle;top=0;left=0;bottom=0;fillColor=none;align=left;verticalAlign=top;spacingLeft=4;spacingRight=4;overflow=hidden;rotatable=0;points=[];portConstraint=eastwest;part=1;fontSize=12;" vertex="1" connectable="0" parent="mlgvoR9TbAIo5Vg3jV27-102">
          <mxGeometry width="30" height="26" as="geometry"/>
        </mxCell>
        <mxCell id="mlgvoR9TbAIo5Vg3jV27-123" value="discharge_permits" style="shape=partialRectangle;top=0;left=0;right=0;bottom=0;align=left;verticalAlign=top;fillColor=none;spacingLeft=34;spacingRight=4;overflow=hidden;rotatable=0;points=[[0,0.5],[1,0.5]];portConstraint=eastwest;dropTarget=0;fontSize=12;" vertex="1" parent="mlgvoR9TbAIo5Vg3jV27-85">
          <mxGeometry y="242" width="200" height="26" as="geometry"/>
        </mxCell>
        <mxCell id="mlgvoR9TbAIo5Vg3jV27-124" value="" style="shape=partialRectangle;top=0;left=0;bottom=0;fillColor=none;align=left;verticalAlign=top;spacingLeft=4;spacingRight=4;overflow=hidden;rotatable=0;points=[];portConstraint=eastwest;part=1;fontSize=12;" vertex="1" connectable="0" parent="mlgvoR9TbAIo5Vg3jV27-123">
          <mxGeometry width="30" height="26" as="geometry"/>
        </mxCell>
        <mxCell id="mlgvoR9TbAIo5Vg3jV27-125" value="remark" style="shape=partialRectangle;top=0;left=0;right=0;bottom=0;align=left;verticalAlign=top;fillColor=none;spacingLeft=34;spacingRight=4;overflow=hidden;rotatable=0;points=[[0,0.5],[1,0.5]];portConstraint=eastwest;dropTarget=0;fontSize=12;" vertex="1" parent="mlgvoR9TbAIo5Vg3jV27-85">
          <mxGeometry y="268" width="200" height="26" as="geometry"/>
        </mxCell>
        <mxCell id="mlgvoR9TbAIo5Vg3jV27-126" value="" style="shape=partialRectangle;top=0;left=0;bottom=0;fillColor=none;align=left;verticalAlign=top;spacingLeft=4;spacingRight=4;overflow=hidden;rotatable=0;points=[];portConstraint=eastwest;part=1;fontSize=12;" vertex="1" connectable="0" parent="mlgvoR9TbAIo5Vg3jV27-125">
          <mxGeometry width="30" height="26" as="geometry"/>
        </mxCell>
        <mxCell id="mlgvoR9TbAIo5Vg3jV27-127" value="create_time" style="shape=partialRectangle;top=0;left=0;right=0;bottom=0;align=left;verticalAlign=top;fillColor=none;spacingLeft=34;spacingRight=4;overflow=hidden;rotatable=0;points=[[0,0.5],[1,0.5]];portConstraint=eastwest;dropTarget=0;fontSize=12;" vertex="1" parent="mlgvoR9TbAIo5Vg3jV27-85">
          <mxGeometry y="294" width="200" height="26" as="geometry"/>
        </mxCell>
        <mxCell id="mlgvoR9TbAIo5Vg3jV27-128" value="" style="shape=partialRectangle;top=0;left=0;bottom=0;fillColor=none;align=left;verticalAlign=top;spacingLeft=4;spacingRight=4;overflow=hidden;rotatable=0;points=[];portConstraint=eastwest;part=1;fontSize=12;" vertex="1" connectable="0" parent="mlgvoR9TbAIo5Vg3jV27-127">
          <mxGeometry width="30" height="26" as="geometry"/>
        </mxCell>
        <mxCell id="mlgvoR9TbAIo5Vg3jV27-129" value="update_time" style="shape=partialRectangle;top=0;left=0;right=0;bottom=0;align=left;verticalAlign=top;fillColor=none;spacingLeft=34;spacingRight=4;overflow=hidden;rotatable=0;points=[[0,0.5],[1,0.5]];portConstraint=eastwest;dropTarget=0;fontSize=12;" vertex="1" parent="mlgvoR9TbAIo5Vg3jV27-85">
          <mxGeometry y="320" width="200" height="26" as="geometry"/>
        </mxCell>
        <mxCell id="mlgvoR9TbAIo5Vg3jV27-130" value="" style="shape=partialRectangle;top=0;left=0;bottom=0;fillColor=none;align=left;verticalAlign=top;spacingLeft=4;spacingRight=4;overflow=hidden;rotatable=0;points=[];portConstraint=eastwest;part=1;fontSize=12;" vertex="1" connectable="0" parent="mlgvoR9TbAIo5Vg3jV27-129">
          <mxGeometry width="30" height="26" as="geometry"/>
        </mxCell>
        <mxCell id="mlgvoR9TbAIo5Vg3jV27-131" value="Table" style="swimlane;fontStyle=0;childLayout=stackLayout;horizontal=1;startSize=26;fillColor=#dae8fc;horizontalStack=0;resizeParent=1;resizeParentMax=0;resizeLast=0;collapsible=1;marginBottom=0;swimlaneFillColor=#ffffff;align=center;fontSize=14;strokeColor=#6c8ebf;" vertex="1" parent="1">
          <mxGeometry x="-50" y="130" width="160" height="152" as="geometry"/>
        </mxCell>
        <mxCell id="mlgvoR9TbAIo5Vg3jV27-132" value="id" style="shape=partialRectangle;top=0;left=0;right=0;bottom=1;align=left;verticalAlign=middle;fillColor=none;spacingLeft=34;spacingRight=4;overflow=hidden;rotatable=0;points=[[0,0.5],[1,0.5]];portConstraint=eastwest;dropTarget=0;fontStyle=5;fontSize=12;" vertex="1" parent="mlgvoR9TbAIo5Vg3jV27-131">
          <mxGeometry y="26" width="160" height="30" as="geometry"/>
        </mxCell>
        <mxCell id="mlgvoR9TbAIo5Vg3jV27-133" value="PK" style="shape=partialRectangle;top=0;left=0;bottom=0;fillColor=none;align=left;verticalAlign=middle;spacingLeft=4;spacingRight=4;overflow=hidden;rotatable=0;points=[];portConstraint=eastwest;part=1;fontSize=12;" vertex="1" connectable="0" parent="mlgvoR9TbAIo5Vg3jV27-132">
          <mxGeometry width="30" height="30" as="geometry"/>
        </mxCell>
        <mxCell id="mlgvoR9TbAIo5Vg3jV27-142" value="dept_id" style="shape=partialRectangle;top=0;left=0;right=0;bottom=1;align=left;verticalAlign=middle;fillColor=none;spacingLeft=34;spacingRight=4;overflow=hidden;rotatable=0;points=[[0,0.5],[1,0.5]];portConstraint=eastwest;dropTarget=0;fontStyle=5;fontSize=12;" vertex="1" parent="mlgvoR9TbAIo5Vg3jV27-131">
          <mxGeometry y="56" width="160" height="30" as="geometry"/>
        </mxCell>
        <mxCell id="mlgvoR9TbAIo5Vg3jV27-143" value="LK" style="shape=partialRectangle;top=0;left=0;bottom=0;fillColor=none;align=left;verticalAlign=middle;spacingLeft=4;spacingRight=4;overflow=hidden;rotatable=0;points=[];portConstraint=eastwest;part=1;fontSize=12;" vertex="1" connectable="0" parent="mlgvoR9TbAIo5Vg3jV27-142">
          <mxGeometry width="30" height="30" as="geometry"/>
        </mxCell>
        <mxCell id="mlgvoR9TbAIo5Vg3jV27-144" value="site_id" style="shape=partialRectangle;top=0;left=0;right=0;bottom=1;align=left;verticalAlign=middle;fillColor=none;spacingLeft=34;spacingRight=4;overflow=hidden;rotatable=0;points=[[0,0.5],[1,0.5]];portConstraint=eastwest;dropTarget=0;fontStyle=5;fontSize=12;" vertex="1" parent="mlgvoR9TbAIo5Vg3jV27-131">
          <mxGeometry y="86" width="160" height="30" as="geometry"/>
        </mxCell>
        <mxCell id="mlgvoR9TbAIo5Vg3jV27-145" value="LK" style="shape=partialRectangle;top=0;left=0;bottom=0;fillColor=none;align=left;verticalAlign=middle;spacingLeft=4;spacingRight=4;overflow=hidden;rotatable=0;points=[];portConstraint=eastwest;part=1;fontSize=12;" vertex="1" connectable="0" parent="mlgvoR9TbAIo5Vg3jV27-144">
          <mxGeometry width="30" height="30" as="geometry"/>
        </mxCell>
        <mxCell id="mlgvoR9TbAIo5Vg3jV27-134" value="create_time" style="shape=partialRectangle;top=0;left=0;right=0;bottom=0;align=left;verticalAlign=top;fillColor=none;spacingLeft=34;spacingRight=4;overflow=hidden;rotatable=0;points=[[0,0.5],[1,0.5]];portConstraint=eastwest;dropTarget=0;fontSize=12;" vertex="1" parent="mlgvoR9TbAIo5Vg3jV27-131">
          <mxGeometry y="116" width="160" height="26" as="geometry"/>
        </mxCell>
        <mxCell id="mlgvoR9TbAIo5Vg3jV27-135" value="" style="shape=partialRectangle;top=0;left=0;bottom=0;fillColor=none;align=left;verticalAlign=top;spacingLeft=4;spacingRight=4;overflow=hidden;rotatable=0;points=[];portConstraint=eastwest;part=1;fontSize=12;" vertex="1" connectable="0" parent="mlgvoR9TbAIo5Vg3jV27-134">
          <mxGeometry width="30" height="26" as="geometry"/>
        </mxCell>
        <mxCell id="mlgvoR9TbAIo5Vg3jV27-140" value="" style="shape=partialRectangle;top=0;left=0;right=0;bottom=0;align=left;verticalAlign=top;fillColor=none;spacingLeft=34;spacingRight=4;overflow=hidden;rotatable=0;points=[[0,0.5],[1,0.5]];portConstraint=eastwest;dropTarget=0;fontSize=12;" vertex="1" parent="mlgvoR9TbAIo5Vg3jV27-131">
          <mxGeometry y="142" width="160" height="10" as="geometry"/>
        </mxCell>
        <mxCell id="mlgvoR9TbAIo5Vg3jV27-141" value="" style="shape=partialRectangle;top=0;left=0;bottom=0;fillColor=none;align=left;verticalAlign=top;spacingLeft=4;spacingRight=4;overflow=hidden;rotatable=0;points=[];portConstraint=eastwest;part=1;fontSize=12;" vertex="1" connectable="0" parent="mlgvoR9TbAIo5Vg3jV27-140">
          <mxGeometry width="30" height="10" as="geometry"/>
        </mxCell>
        <mxCell id="mlgvoR9TbAIo5Vg3jV27-146" style="edgeStyle=orthogonalEdgeStyle;rounded=0;orthogonalLoop=1;jettySize=auto;html=1;exitX=1;exitY=0.5;exitDx=0;exitDy=0;entryX=0;entryY=0.5;entryDx=0;entryDy=0;" edge="1" parent="1" source="mlgvoR9TbAIo5Vg3jV27-96" target="mlgvoR9TbAIo5Vg3jV27-142">
          <mxGeometry relative="1" as="geometry"/>
        </mxCell>
        <mxCell id="mlgvoR9TbAIo5Vg3jV27-147" style="edgeStyle=orthogonalEdgeStyle;rounded=0;orthogonalLoop=1;jettySize=auto;html=1;exitX=1;exitY=0.5;exitDx=0;exitDy=0;entryX=0;entryY=0.5;entryDx=0;entryDy=0;" edge="1" parent="1" source="mlgvoR9TbAIo5Vg3jV27-144" target="mlgvoR9TbAIo5Vg3jV27-2">
          <mxGeometry relative="1" as="geometry"/>
        </mxCell>
        <mxCell id="mlgvoR9TbAIo5Vg3jV27-148" style="edgeStyle=orthogonalEdgeStyle;rounded=0;orthogonalLoop=1;jettySize=auto;html=1;exitX=1;exitY=0.5;exitDx=0;exitDy=0;entryX=0;entryY=0.5;entryDx=0;entryDy=0;" edge="1" parent="1" source="mlgvoR9TbAIo5Vg3jV27-2" target="mlgvoR9TbAIo5Vg3jV27-49">
          <mxGeometry relative="1" as="geometry"/>
        </mxCell>
        <mxCell id="mlgvoR9TbAIo5Vg3jV27-149" style="edgeStyle=orthogonalEdgeStyle;rounded=0;orthogonalLoop=1;jettySize=auto;html=1;entryX=0;entryY=0.5;entryDx=0;entryDy=0;" edge="1" parent="1" source="mlgvoR9TbAIo5Vg3jV27-66" target="mlgvoR9TbAIo5Vg3jV27-2">
          <mxGeometry relative="1" as="geometry">
            <Array as="points">
              <mxPoint x="170" y="511"/>
              <mxPoint x="170" y="181"/>
            </Array>
          </mxGeometry>
        </mxCell>
        <mxCell id="mlgvoR9TbAIo5Vg3jV27-150" style="edgeStyle=orthogonalEdgeStyle;rounded=0;orthogonalLoop=1;jettySize=auto;html=1;exitX=1;exitY=0.5;exitDx=0;exitDy=0;entryX=0;entryY=0.5;entryDx=0;entryDy=0;" edge="1" parent="1" source="mlgvoR9TbAIo5Vg3jV27-37" target="mlgvoR9TbAIo5Vg3jV27-83">
          <mxGeometry relative="1" as="geometry"/>
        </mxCell>
      </root>
    </mxGraphModel>
  </diagram>
</mxfile>
